<?xml version="1.0" encoding="UTF-8" standalone="no" ?>
<!DOCTYPE svg PUBLIC "-//W3C//DTD SVG 1.1//EN" "http://www.w3.org/Graphics/SVG/1.1/DTD/svg11.dtd">
<svg xmlns="http://www.w3.org/2000/svg" xmlns:xlink="http://www.w3.org/1999/xlink" version="1.1" width="1080" height="1080" viewBox="0 0 1080 1080" xml:space="preserve">
<desc>Created with Fabric.js 5.2.4</desc>
<defs>
</defs>
<g transform="matrix(1 0 0 1 540 540)" id="6133a47f-44b0-4a30-9129-e9c65ccab374"  >
<rect style="stroke: none; stroke-width: 1; stroke-dasharray: none; stroke-linecap: butt; stroke-dashoffset: 0; stroke-linejoin: miter; stroke-miterlimit: 4; fill: rgb(255,255,255); fill-rule: nonzero; opacity: 1; visibility: hidden;" vector-effect="non-scaling-stroke"  x="-540" y="-540" rx="0" ry="0" width="1080" height="1080" />
</g>
<g transform="matrix(1 0 0 1 540 540)" id="48882d93-7322-46b0-bead-97e3ee611319"  >
</g>
<g transform="matrix(1 0 0 1 514.49 560.57)"  >
<rect style="stroke: none; stroke-width: 1; stroke-dasharray: none; stroke-linecap: butt; stroke-dashoffset: 0; stroke-linejoin: miter; stroke-miterlimit: 4; fill: rgb(255,255,255); fill-rule: nonzero; opacity: 1; visibility: hidden;" vector-effect="non-scaling-stroke"  x="-540" y="-540" rx="0" ry="0" width="1080" height="1080" />
</g>
<g transform="matrix(1 0 0 1 458.67 587.64)"  >
<path style="stroke: none; stroke-width: 1; stroke-dasharray: none; stroke-linecap: butt; stroke-dashoffset: 0; stroke-linejoin: miter; stroke-miterlimit: 4; fill: rgb(78,53,163); fill-rule: evenodd; opacity: 1;" vector-effect="non-scaling-stroke"  transform=" translate(-27.57, -63.42)" d="M 29.8198 68.6289 L 27.5635 72.7419 L 25.3123 68.639 C 26.0441 68.7198 26.7759 68.7754 27.5025 68.7754 C 28.2648 68.7754 29.0474 68.7198 29.8198 68.6289 Z M 36.1314 57.1436 L 30.8768 66.7087 C 30.6888 66.7441 30.4906 66.7744 30.3026 66.7997 C 29.3676 66.9361 28.4173 67.022 27.4975 67.022 C 26.5777 67.022 25.6223 66.9361 24.6872 66.7997 C 24.545 66.7795 24.4027 66.7492 24.2553 66.729 L 19.0058 57.1688 C 19.2955 57.2042 19.5902 57.2244 19.9205 57.2244 C 22.1769 57.2244 23.3761 56.2947 24.5653 55.3599 C 25.3733 54.7384 26.1813 54.1067 27.4873 54.1067 C 28.7933 54.1067 29.5962 54.7384 30.4093 55.3599 C 31.5985 56.2947 32.7978 57.2244 35.0541 57.2244 C 35.4454 57.2244 35.796 57.1991 36.1314 57.1436 Z" stroke-linecap="round" />
</g>
<g transform="matrix(1 0 0 1 458.61 568.28)"  >
<path style="stroke: none; stroke-width: 1; stroke-dasharray: none; stroke-linecap: butt; stroke-dashoffset: 0; stroke-linejoin: miter; stroke-miterlimit: 4; fill: rgb(78,53,163); fill-rule: evenodd; opacity: 1;" vector-effect="non-scaling-stroke"  transform=" translate(-27.5, -44.08)" d="M 27.5025 22.4603 L 27.4873 22.4603 C 21.3688 22.4653 15.8094 24.9564 11.7795 28.9634 C 7.76495 32.9602 5.2698 38.473 5.25964 44.5466 L 5.25964 44.582 L 5.25964 44.5971 C 5.26472 50.6758 7.77003 56.2088 11.7999 60.2157 C 14.3153 62.7119 17.4305 64.6168 20.9064 65.6982 L 17.7455 59.7963 C 16.6326 59.0889 15.601 58.2704 14.6711 57.3457 C 11.3832 54.0815 9.3403 49.5642 9.33522 44.5971 L 9.33522 44.582 L 9.33522 44.5466 C 9.3403 39.5846 11.3882 35.0774 14.666 31.8132 C 17.9488 28.544 22.4868 26.5127 27.4873 26.5127 L 27.5025 26.5127 L 27.5381 26.5127 C 32.5182 26.5178 37.0461 28.549 40.3289 31.8132 L 40.3391 31.8132 C 43.627 35.0774 45.6648 39.5947 45.6699 44.5668 L 45.6699 44.582 L 45.6699 44.6173 C 45.6597 49.5743 43.627 54.0764 40.3391 57.3457 C 39.4904 58.1895 38.5554 58.9424 37.5543 59.6094 L 34.3426 65.6173 C 37.722 64.5259 40.766 62.6462 43.2255 60.2006 C 47.2452 56.2037 49.7404 50.6859 49.7454 44.6224 L 49.7454 44.587 L 49.7454 44.5719 C 49.7404 38.4881 47.2401 32.9602 43.2103 28.9533 L 43.2154 28.9482 C 39.1957 24.9514 33.6413 22.4754 27.5381 22.4653" stroke-linecap="round" />
</g>
<g transform="matrix(1 0 0 1 458.61 535.75)"  >
<path style="stroke: none; stroke-width: 1; stroke-dasharray: none; stroke-linecap: butt; stroke-dashoffset: 0; stroke-linejoin: miter; stroke-miterlimit: 4; fill: rgb(78,53,163); fill-rule: evenodd; opacity: 1;" vector-effect="non-scaling-stroke"  transform=" translate(-27.5, -11.55)" d="M 37.9608 23.0919 C 30.9836 19.4992 24.0215 19.7115 17.0341 23.0919 C 17.0341 19.7266 17.0341 16.5332 17.0341 13.1578 C 22.0701 7.22063 33.3466 7.49854 37.9608 13.1578 C 37.9608 15.9622 37.9608 20.2824 37.9608 23.0919 Z M 44.3384 15.8409 L 44.3384 14.3604 L 44.3384 7.10947 L 44.3384 6.01298 C 44.3384 5.67444 44.0844 5.38642 43.7439 5.346 L 38.6418 4.70428 L 27.5025 0 L 0 11.6116 L 15.2097 15.5327 L 15.2097 12.9001 L 15.4181 12.3342 C 15.9212 11.738 16.5005 11.1821 17.1205 10.6819 C 20.012 8.35754 23.8945 7.2459 27.716 7.28127 C 31.5425 7.32169 35.3437 8.51924 38.0574 10.7931 C 38.6164 11.263 39.1347 11.7885 39.6022 12.3544 L 39.8004 12.9001 L 39.8004 15.5327 L 42.9918 14.7091 L 42.9918 15.8409 C 42.6818 16.0582 42.4734 16.4119 42.4734 16.8212 C 42.4734 17.2608 42.7174 17.6398 43.068 17.8469 C 42.8851 17.9379 42.7072 18.0642 42.5497 18.236 L 42.138 22.1015 C 42.5497 22.435 43.0832 22.6371 43.6626 22.6371 C 44.2419 22.6371 44.7704 22.435 45.1973 22.1015 L 44.7856 18.236 C 44.6281 18.0642 44.4502 17.9328 44.2673 17.8469 C 44.623 17.6398 44.8568 17.2608 44.8568 16.8212 C 44.8619 16.4119 44.6535 16.0532 44.3384 15.8409 Z M 55 11.6116 L 45.6953 7.68045 L 45.6953 14.0067 L 55 11.6116 Z" stroke-linecap="round" />
</g>
<g transform="matrix(1 0 0 1 458.61 563.55)"  >
<path style="stroke: none; stroke-width: 1; stroke-dasharray: none; stroke-linecap: butt; stroke-dashoffset: 0; stroke-linejoin: miter; stroke-miterlimit: 4; fill: rgb(78,53,163); fill-rule: evenodd; opacity: 1;" vector-effect="non-scaling-stroke"  transform=" translate(-27.5, -39.33)" d="M 18.2994 51.8784 L 18.2994 24.5977 L 24.4433 24.5977 L 24.4433 50.8729 C 24.0317 51.1104 23.6556 51.3782 23.2796 51.651 C 22.5478 52.1766 21.816 52.7071 20.632 52.7071 C 19.6156 52.7071 18.9397 52.318 18.2994 51.8784 Z M 30.5516 52.2321 L 30.5516 25.9569 L 36.6954 25.9569 L 36.6954 53.2377 C 36.0602 53.6773 35.3793 54.0714 34.3578 54.0714 C 33.1789 54.0714 32.4471 53.5408 31.7153 53.0103 C 31.3393 52.7425 30.9683 52.4696 30.5516 52.2321 Z" stroke-linecap="round" />
</g>
<g transform="matrix(0.51 0 0 0.51 540 569.49)" style=""  >
		<text xml:space="preserve" font-family="Lato" font-size="52" font-style="normal" font-weight="700" style="stroke: none; stroke-width: 1; stroke-dasharray: none; stroke-linecap: butt; stroke-dashoffset: 0; stroke-linejoin: miter; stroke-miterlimit: 4; fill: rgb(78,53,163); fill-rule: nonzero; opacity: 1; white-space: pre;" ><tspan x="-108.34" y="16.34" >UniLearn</tspan></text>
</g>
<g transform="matrix(NaN NaN NaN NaN 0 0)"  >
<g style=""   >
</g>
</g>
<g transform="matrix(NaN NaN NaN NaN 0 0)"  >
<g style=""   >
</g>
</g>
</svg>